# xmcd
#
# Track frame offsets: 
#        150
#        12295
#        24455
#        37485
#        49383
#        62635
#        73975
#        84625
#        95873
#        108085
#
# Disc length: 1639 seconds
#
# Revision: 1
# Processed by: cddbd v1.5.2PL0 Copyright (c) Steve Scherf et al.
# Submitted via: ExactAudioCopyFreeDBPlugin 1.0
#
DISCID=8f06650a
DTITLE=Various Artist - Mexican Fiesta
DYEAR=1900
DGENRE=Latin
TTITLE0=La Maruca
TTITLE1=El Jarabe Tpatio
TTITLE2=Guaedame Esos Ojitos
TTITLE3=Son de Mi Negra
TTITLE4=Vaya Cuervo
TTITLE5=Polka De Jalisco
TTITLE6=La Mancornadora
TTITLE7=Las Gaviotas
TTITLE8=Que Milagro Chaparrita
TTITLE9=España Cani
EXTD=
EXTT0=
EXTT1=
EXTT2=
EXTT3=
EXTT4=
EXTT5=
EXTT6=
EXTT7=
EXTT8=
EXTT9=
PLAYORDER=
